<mxfile host="app.diagrams.net" modified="2023-11-07T23:32:49.582Z" agent="Mozilla/5.0 (Windows NT 10.0; Win64; x64) AppleWebKit/537.36 (KHTML, like Gecko) Chrome/119.0.0.0 Safari/537.36" etag="yveMawBF7z362NdWTRe3" version="22.0.8" type="google">
  <diagram name="Page-1" id="CtAqu_Ewa9IOqDz0TUkq">
    <mxGraphModel grid="1" page="1" gridSize="10" guides="1" tooltips="1" connect="1" arrows="1" fold="1" pageScale="1" pageWidth="827" pageHeight="1169" math="0" shadow="0">
      <root>
        <mxCell id="0" />
        <mxCell id="1" parent="0" />
        <mxCell id="b1p56JkDS0H2IpYGcqzU-3" style="edgeStyle=orthogonalEdgeStyle;rounded=0;orthogonalLoop=1;jettySize=auto;html=1;exitX=1;exitY=0.5;exitDx=0;exitDy=0;entryX=0;entryY=0.5;entryDx=0;entryDy=0;endArrow=none;endFill=0;" edge="1" parent="1" source="b1p56JkDS0H2IpYGcqzU-1" target="b1p56JkDS0H2IpYGcqzU-2">
          <mxGeometry relative="1" as="geometry" />
        </mxCell>
        <mxCell id="b1p56JkDS0H2IpYGcqzU-4" value="1" style="edgeLabel;html=1;align=center;verticalAlign=middle;resizable=0;points=[];" vertex="1" connectable="0" parent="b1p56JkDS0H2IpYGcqzU-3">
          <mxGeometry x="-0.0638" relative="1" as="geometry">
            <mxPoint as="offset" />
          </mxGeometry>
        </mxCell>
        <mxCell id="b1p56JkDS0H2IpYGcqzU-1" value="ResortManagementSystem" style="rounded=1;arcSize=10;whiteSpace=wrap;html=1;align=center;" vertex="1" parent="1">
          <mxGeometry x="50" y="320" width="150" height="40" as="geometry" />
        </mxCell>
        <mxCell id="b1p56JkDS0H2IpYGcqzU-6" style="edgeStyle=orthogonalEdgeStyle;rounded=0;orthogonalLoop=1;jettySize=auto;html=1;exitX=1;exitY=0.5;exitDx=0;exitDy=0;entryX=0;entryY=0.5;entryDx=0;entryDy=0;endArrow=none;endFill=0;" edge="1" parent="1" source="b1p56JkDS0H2IpYGcqzU-2" target="b1p56JkDS0H2IpYGcqzU-5">
          <mxGeometry relative="1" as="geometry" />
        </mxCell>
        <mxCell id="b1p56JkDS0H2IpYGcqzU-7" value="1..N" style="edgeLabel;html=1;align=center;verticalAlign=middle;resizable=0;points=[];" vertex="1" connectable="0" parent="b1p56JkDS0H2IpYGcqzU-6">
          <mxGeometry y="3" relative="1" as="geometry">
            <mxPoint as="offset" />
          </mxGeometry>
        </mxCell>
        <mxCell id="b1p56JkDS0H2IpYGcqzU-2" value="Manage" style="shape=rhombus;perimeter=rhombusPerimeter;whiteSpace=wrap;html=1;align=center;" vertex="1" parent="1">
          <mxGeometry x="240" y="310" width="120" height="60" as="geometry" />
        </mxCell>
        <mxCell id="b1p56JkDS0H2IpYGcqzU-100" style="edgeStyle=orthogonalEdgeStyle;rounded=0;orthogonalLoop=1;jettySize=auto;html=1;exitX=0.75;exitY=0;exitDx=0;exitDy=0;entryX=0;entryY=0.5;entryDx=0;entryDy=0;endArrow=none;endFill=0;" edge="1" parent="1" source="b1p56JkDS0H2IpYGcqzU-5" target="b1p56JkDS0H2IpYGcqzU-67">
          <mxGeometry relative="1" as="geometry" />
        </mxCell>
        <mxCell id="b1p56JkDS0H2IpYGcqzU-101" value="1..N" style="edgeLabel;html=1;align=center;verticalAlign=middle;resizable=0;points=[];" vertex="1" connectable="0" parent="b1p56JkDS0H2IpYGcqzU-100">
          <mxGeometry x="-0.7462" y="-1" relative="1" as="geometry">
            <mxPoint y="18" as="offset" />
          </mxGeometry>
        </mxCell>
        <mxCell id="b1p56JkDS0H2IpYGcqzU-5" value="Resort" style="rounded=1;arcSize=10;whiteSpace=wrap;html=1;align=center;" vertex="1" parent="1">
          <mxGeometry x="400" y="320" width="80" height="40" as="geometry" />
        </mxCell>
        <mxCell id="b1p56JkDS0H2IpYGcqzU-14" value="1..N" style="edgeStyle=orthogonalEdgeStyle;rounded=0;orthogonalLoop=1;jettySize=auto;html=1;exitX=0;exitY=0.5;exitDx=0;exitDy=0;entryX=0.75;entryY=0;entryDx=0;entryDy=0;endArrow=none;endFill=0;" edge="1" parent="1" source="b1p56JkDS0H2IpYGcqzU-8" target="b1p56JkDS0H2IpYGcqzU-5">
          <mxGeometry x="0.7949" relative="1" as="geometry">
            <Array as="points">
              <mxPoint x="430" y="50" />
              <mxPoint x="430" y="320" />
            </Array>
            <mxPoint as="offset" />
          </mxGeometry>
        </mxCell>
        <mxCell id="b1p56JkDS0H2IpYGcqzU-66" style="edgeStyle=orthogonalEdgeStyle;rounded=0;orthogonalLoop=1;jettySize=auto;html=1;exitX=1;exitY=0.5;exitDx=0;exitDy=0;entryX=0;entryY=0.5;entryDx=0;entryDy=0;endArrow=none;endFill=0;" edge="1" parent="1" source="b1p56JkDS0H2IpYGcqzU-8" target="b1p56JkDS0H2IpYGcqzU-46">
          <mxGeometry relative="1" as="geometry" />
        </mxCell>
        <mxCell id="b1p56JkDS0H2IpYGcqzU-8" value="Service" style="shape=rhombus;perimeter=rhombusPerimeter;whiteSpace=wrap;html=1;align=center;" vertex="1" parent="1">
          <mxGeometry x="520" y="20" width="120" height="60" as="geometry" />
        </mxCell>
        <mxCell id="b1p56JkDS0H2IpYGcqzU-12" style="edgeStyle=orthogonalEdgeStyle;rounded=0;orthogonalLoop=1;jettySize=auto;html=1;exitX=0;exitY=0.5;exitDx=0;exitDy=0;entryX=1;entryY=0.5;entryDx=0;entryDy=0;endArrow=none;endFill=0;" edge="1" parent="1" source="b1p56JkDS0H2IpYGcqzU-10" target="b1p56JkDS0H2IpYGcqzU-5">
          <mxGeometry relative="1" as="geometry" />
        </mxCell>
        <mxCell id="b1p56JkDS0H2IpYGcqzU-27" value="1..N" style="edgeLabel;html=1;align=center;verticalAlign=middle;resizable=0;points=[];" vertex="1" connectable="0" parent="b1p56JkDS0H2IpYGcqzU-12">
          <mxGeometry x="-0.1143" y="-2" relative="1" as="geometry">
            <mxPoint x="-12" y="2" as="offset" />
          </mxGeometry>
        </mxCell>
        <mxCell id="b1p56JkDS0H2IpYGcqzU-72" style="edgeStyle=orthogonalEdgeStyle;rounded=0;orthogonalLoop=1;jettySize=auto;html=1;exitX=1;exitY=0.5;exitDx=0;exitDy=0;entryX=0;entryY=0.5;entryDx=0;entryDy=0;endArrow=none;endFill=0;" edge="1" parent="1" source="b1p56JkDS0H2IpYGcqzU-10" target="b1p56JkDS0H2IpYGcqzU-51">
          <mxGeometry relative="1" as="geometry" />
        </mxCell>
        <mxCell id="b1p56JkDS0H2IpYGcqzU-10" value="Contains" style="shape=rhombus;perimeter=rhombusPerimeter;whiteSpace=wrap;html=1;align=center;" vertex="1" parent="1">
          <mxGeometry x="520" y="310" width="120" height="60" as="geometry" />
        </mxCell>
        <mxCell id="b1p56JkDS0H2IpYGcqzU-15" style="edgeStyle=orthogonalEdgeStyle;rounded=0;orthogonalLoop=1;jettySize=auto;html=1;exitX=0;exitY=0.5;exitDx=0;exitDy=0;entryX=0.75;entryY=1;entryDx=0;entryDy=0;endArrow=none;endFill=0;" edge="1" parent="1" source="b1p56JkDS0H2IpYGcqzU-11" target="b1p56JkDS0H2IpYGcqzU-5">
          <mxGeometry relative="1" as="geometry" />
        </mxCell>
        <mxCell id="b1p56JkDS0H2IpYGcqzU-25" value="1..N" style="edgeLabel;html=1;align=center;verticalAlign=middle;resizable=0;points=[];" vertex="1" connectable="0" parent="b1p56JkDS0H2IpYGcqzU-15">
          <mxGeometry x="0.3815" y="-2" relative="1" as="geometry">
            <mxPoint x="-2" y="-58" as="offset" />
          </mxGeometry>
        </mxCell>
        <mxCell id="b1p56JkDS0H2IpYGcqzU-63" style="edgeStyle=orthogonalEdgeStyle;rounded=0;orthogonalLoop=1;jettySize=auto;html=1;exitX=1;exitY=0.5;exitDx=0;exitDy=0;entryX=0;entryY=0.5;entryDx=0;entryDy=0;endArrow=none;endFill=0;" edge="1" parent="1" source="b1p56JkDS0H2IpYGcqzU-11" target="b1p56JkDS0H2IpYGcqzU-38">
          <mxGeometry relative="1" as="geometry" />
        </mxCell>
        <mxCell id="b1p56JkDS0H2IpYGcqzU-11" value="Composits" style="shape=rhombus;perimeter=rhombusPerimeter;whiteSpace=wrap;html=1;align=center;" vertex="1" parent="1">
          <mxGeometry x="520" y="490" width="120" height="60" as="geometry" />
        </mxCell>
        <mxCell id="b1p56JkDS0H2IpYGcqzU-16" value="User" style="rounded=1;arcSize=10;whiteSpace=wrap;html=1;align=center;" vertex="1" parent="1">
          <mxGeometry x="520" y="-60" width="80" height="40" as="geometry" />
        </mxCell>
        <mxCell id="b1p56JkDS0H2IpYGcqzU-18" value="Reservation" style="rounded=1;arcSize=10;whiteSpace=wrap;html=1;align=center;" vertex="1" parent="1">
          <mxGeometry x="520" y="240" width="80" height="40" as="geometry" />
        </mxCell>
        <mxCell id="b1p56JkDS0H2IpYGcqzU-33" style="edgeStyle=orthogonalEdgeStyle;rounded=0;orthogonalLoop=1;jettySize=auto;html=1;exitX=1;exitY=0.5;exitDx=0;exitDy=0;entryX=0.22;entryY=0.5;entryDx=0;entryDy=0;endArrow=none;endFill=0;entryPerimeter=0;" edge="1" parent="1" source="b1p56JkDS0H2IpYGcqzU-19" target="b1p56JkDS0H2IpYGcqzU-37">
          <mxGeometry relative="1" as="geometry">
            <mxPoint x="670" y="440" as="targetPoint" />
          </mxGeometry>
        </mxCell>
        <mxCell id="b1p56JkDS0H2IpYGcqzU-19" value="Facility" style="rounded=1;arcSize=10;whiteSpace=wrap;html=1;align=center;" vertex="1" parent="1">
          <mxGeometry x="520" y="420" width="80" height="40" as="geometry" />
        </mxCell>
        <mxCell id="b1p56JkDS0H2IpYGcqzU-23" value="" style="endArrow=classic;html=1;rounded=0;" edge="1" parent="1">
          <mxGeometry width="50" height="50" relative="1" as="geometry">
            <mxPoint x="240" y="380" as="sourcePoint" />
            <mxPoint x="360" y="380" as="targetPoint" />
          </mxGeometry>
        </mxCell>
        <mxCell id="b1p56JkDS0H2IpYGcqzU-29" value="" style="endArrow=classic;html=1;rounded=0;" edge="1" parent="1">
          <mxGeometry width="50" height="50" relative="1" as="geometry">
            <mxPoint x="520" y="90" as="sourcePoint" />
            <mxPoint x="640" y="90" as="targetPoint" />
          </mxGeometry>
        </mxCell>
        <mxCell id="b1p56JkDS0H2IpYGcqzU-30" value="" style="endArrow=classic;html=1;rounded=0;" edge="1" parent="1">
          <mxGeometry width="50" height="50" relative="1" as="geometry">
            <mxPoint x="520" y="380" as="sourcePoint" />
            <mxPoint x="640" y="380" as="targetPoint" />
          </mxGeometry>
        </mxCell>
        <mxCell id="b1p56JkDS0H2IpYGcqzU-31" value="" style="endArrow=classic;html=1;rounded=0;" edge="1" parent="1">
          <mxGeometry width="50" height="50" relative="1" as="geometry">
            <mxPoint x="640" y="560" as="sourcePoint" />
            <mxPoint x="520" y="560" as="targetPoint" />
          </mxGeometry>
        </mxCell>
        <mxCell id="b1p56JkDS0H2IpYGcqzU-73" style="edgeStyle=orthogonalEdgeStyle;rounded=0;orthogonalLoop=1;jettySize=auto;html=1;exitX=0.78;exitY=0.5;exitDx=0;exitDy=0;exitPerimeter=0;entryX=0.5;entryY=0;entryDx=0;entryDy=0;endArrow=none;endFill=0;" edge="1" parent="1" source="b1p56JkDS0H2IpYGcqzU-37" target="b1p56JkDS0H2IpYGcqzU-38">
          <mxGeometry relative="1" as="geometry" />
        </mxCell>
        <mxCell id="b1p56JkDS0H2IpYGcqzU-37" value="IsA" style="strokeWidth=2;html=1;shape=mxgraph.flowchart.extract_or_measurement;whiteSpace=wrap;" vertex="1" parent="1">
          <mxGeometry x="670" y="410" width="95" height="60" as="geometry" />
        </mxCell>
        <mxCell id="b1p56JkDS0H2IpYGcqzU-38" value="Room" style="rounded=1;arcSize=10;whiteSpace=wrap;html=1;align=center;" vertex="1" parent="1">
          <mxGeometry x="827" y="500" width="100" height="40" as="geometry" />
        </mxCell>
        <mxCell id="b1p56JkDS0H2IpYGcqzU-61" style="edgeStyle=orthogonalEdgeStyle;rounded=0;orthogonalLoop=1;jettySize=auto;html=1;exitX=0.78;exitY=0.5;exitDx=0;exitDy=0;exitPerimeter=0;entryX=0.5;entryY=0;entryDx=0;entryDy=0;endArrow=none;endFill=0;" edge="1" parent="1" source="b1p56JkDS0H2IpYGcqzU-41" target="b1p56JkDS0H2IpYGcqzU-51">
          <mxGeometry relative="1" as="geometry" />
        </mxCell>
        <mxCell id="b1p56JkDS0H2IpYGcqzU-41" value="IsA" style="strokeWidth=2;html=1;shape=mxgraph.flowchart.extract_or_measurement;whiteSpace=wrap;" vertex="1" parent="1">
          <mxGeometry x="670" y="230" width="95" height="60" as="geometry" />
        </mxCell>
        <mxCell id="b1p56JkDS0H2IpYGcqzU-43" style="edgeStyle=orthogonalEdgeStyle;rounded=0;orthogonalLoop=1;jettySize=auto;html=1;exitX=1;exitY=0.5;exitDx=0;exitDy=0;entryX=0.22;entryY=0.5;entryDx=0;entryDy=0;entryPerimeter=0;endArrow=none;endFill=0;" edge="1" parent="1" source="b1p56JkDS0H2IpYGcqzU-18" target="b1p56JkDS0H2IpYGcqzU-41">
          <mxGeometry relative="1" as="geometry" />
        </mxCell>
        <mxCell id="b1p56JkDS0H2IpYGcqzU-64" style="edgeStyle=orthogonalEdgeStyle;rounded=0;orthogonalLoop=1;jettySize=auto;html=1;exitX=0.78;exitY=0.5;exitDx=0;exitDy=0;exitPerimeter=0;entryX=0.5;entryY=0;entryDx=0;entryDy=0;endArrow=none;endFill=0;" edge="1" parent="1" source="b1p56JkDS0H2IpYGcqzU-45" target="b1p56JkDS0H2IpYGcqzU-46">
          <mxGeometry relative="1" as="geometry" />
        </mxCell>
        <mxCell id="b1p56JkDS0H2IpYGcqzU-65" style="edgeStyle=orthogonalEdgeStyle;rounded=0;orthogonalLoop=1;jettySize=auto;html=1;exitX=0.78;exitY=0.5;exitDx=0;exitDy=0;exitPerimeter=0;entryX=0.5;entryY=0;entryDx=0;entryDy=0;endArrow=none;endFill=0;" edge="1" parent="1" source="b1p56JkDS0H2IpYGcqzU-45" target="b1p56JkDS0H2IpYGcqzU-48">
          <mxGeometry relative="1" as="geometry">
            <Array as="points">
              <mxPoint x="800" y="-40" />
              <mxPoint x="800" y="120" />
              <mxPoint x="877" y="120" />
            </Array>
          </mxGeometry>
        </mxCell>
        <mxCell id="b1p56JkDS0H2IpYGcqzU-45" value="IsA" style="strokeWidth=2;html=1;shape=mxgraph.flowchart.extract_or_measurement;whiteSpace=wrap;" vertex="1" parent="1">
          <mxGeometry x="680" y="-70" width="95" height="60" as="geometry" />
        </mxCell>
        <mxCell id="b1p56JkDS0H2IpYGcqzU-79" style="edgeStyle=orthogonalEdgeStyle;rounded=0;orthogonalLoop=1;jettySize=auto;html=1;exitX=1;exitY=0.5;exitDx=0;exitDy=0;entryX=0;entryY=0.5;entryDx=0;entryDy=0;endArrow=none;endFill=0;" edge="1" parent="1" source="b1p56JkDS0H2IpYGcqzU-46" target="b1p56JkDS0H2IpYGcqzU-78">
          <mxGeometry relative="1" as="geometry">
            <Array as="points">
              <mxPoint x="927" y="60" />
            </Array>
          </mxGeometry>
        </mxCell>
        <mxCell id="b1p56JkDS0H2IpYGcqzU-94" value="1" style="edgeLabel;html=1;align=center;verticalAlign=middle;resizable=0;points=[];" vertex="1" connectable="0" parent="b1p56JkDS0H2IpYGcqzU-79">
          <mxGeometry x="-0.3042" y="-1" relative="1" as="geometry">
            <mxPoint x="-6" y="-1" as="offset" />
          </mxGeometry>
        </mxCell>
        <mxCell id="b1p56JkDS0H2IpYGcqzU-92" style="edgeStyle=orthogonalEdgeStyle;rounded=0;orthogonalLoop=1;jettySize=auto;html=1;exitX=1;exitY=0.25;exitDx=0;exitDy=0;entryX=0;entryY=0.5;entryDx=0;entryDy=0;endArrow=none;endFill=0;" edge="1" parent="1" source="b1p56JkDS0H2IpYGcqzU-46" target="b1p56JkDS0H2IpYGcqzU-88">
          <mxGeometry relative="1" as="geometry">
            <Array as="points">
              <mxPoint x="970" y="40" />
              <mxPoint x="970" y="-40" />
            </Array>
          </mxGeometry>
        </mxCell>
        <mxCell id="b1p56JkDS0H2IpYGcqzU-93" value="1" style="edgeLabel;html=1;align=center;verticalAlign=middle;resizable=0;points=[];" vertex="1" connectable="0" parent="b1p56JkDS0H2IpYGcqzU-92">
          <mxGeometry x="-0.8656" y="2" relative="1" as="geometry">
            <mxPoint x="3" as="offset" />
          </mxGeometry>
        </mxCell>
        <mxCell id="b1p56JkDS0H2IpYGcqzU-46" value="Guest" style="rounded=1;arcSize=10;whiteSpace=wrap;html=1;align=center;" vertex="1" parent="1">
          <mxGeometry x="827" y="30" width="100" height="40" as="geometry" />
        </mxCell>
        <mxCell id="b1p56JkDS0H2IpYGcqzU-47" style="edgeStyle=orthogonalEdgeStyle;rounded=0;orthogonalLoop=1;jettySize=auto;html=1;exitX=1;exitY=0.5;exitDx=0;exitDy=0;entryX=0.22;entryY=0.5;entryDx=0;entryDy=0;entryPerimeter=0;endArrow=none;endFill=0;" edge="1" parent="1" source="b1p56JkDS0H2IpYGcqzU-16" target="b1p56JkDS0H2IpYGcqzU-45">
          <mxGeometry relative="1" as="geometry" />
        </mxCell>
        <mxCell id="b1p56JkDS0H2IpYGcqzU-75" style="edgeStyle=orthogonalEdgeStyle;rounded=0;orthogonalLoop=1;jettySize=auto;html=1;exitX=1;exitY=0.5;exitDx=0;exitDy=0;entryX=0;entryY=0.5;entryDx=0;entryDy=0;endArrow=none;endFill=0;" edge="1" parent="1" source="b1p56JkDS0H2IpYGcqzU-48" target="b1p56JkDS0H2IpYGcqzU-74">
          <mxGeometry relative="1" as="geometry">
            <Array as="points">
              <mxPoint x="927" y="150" />
            </Array>
          </mxGeometry>
        </mxCell>
        <mxCell id="b1p56JkDS0H2IpYGcqzU-98" value="1..N" style="edgeLabel;html=1;align=center;verticalAlign=middle;resizable=0;points=[];" vertex="1" connectable="0" parent="b1p56JkDS0H2IpYGcqzU-75">
          <mxGeometry x="-0.3894" y="2" relative="1" as="geometry">
            <mxPoint x="-2" y="2" as="offset" />
          </mxGeometry>
        </mxCell>
        <mxCell id="b1p56JkDS0H2IpYGcqzU-108" style="edgeStyle=orthogonalEdgeStyle;rounded=0;orthogonalLoop=1;jettySize=auto;html=1;exitX=1;exitY=0.75;exitDx=0;exitDy=0;entryX=0;entryY=0.5;entryDx=0;entryDy=0;" edge="1" parent="1" source="b1p56JkDS0H2IpYGcqzU-48" target="b1p56JkDS0H2IpYGcqzU-106">
          <mxGeometry relative="1" as="geometry" />
        </mxCell>
        <mxCell id="b1p56JkDS0H2IpYGcqzU-109" value="1..N" style="edgeLabel;html=1;align=center;verticalAlign=middle;resizable=0;points=[];" vertex="1" connectable="0" parent="b1p56JkDS0H2IpYGcqzU-108">
          <mxGeometry x="-0.8289" y="1" relative="1" as="geometry">
            <mxPoint y="1" as="offset" />
          </mxGeometry>
        </mxCell>
        <mxCell id="b1p56JkDS0H2IpYGcqzU-48" value="Manager" style="rounded=1;arcSize=10;whiteSpace=wrap;html=1;align=center;" vertex="1" parent="1">
          <mxGeometry x="827" y="140" width="100" height="40" as="geometry" />
        </mxCell>
        <mxCell id="b1p56JkDS0H2IpYGcqzU-58" style="edgeStyle=orthogonalEdgeStyle;rounded=0;orthogonalLoop=1;jettySize=auto;html=1;exitX=1;exitY=0.5;exitDx=0;exitDy=0;entryX=0;entryY=0.5;entryDx=0;entryDy=0;endArrow=none;endFill=0;" edge="1" parent="1" source="b1p56JkDS0H2IpYGcqzU-51" target="b1p56JkDS0H2IpYGcqzU-57">
          <mxGeometry relative="1" as="geometry" />
        </mxCell>
        <mxCell id="b1p56JkDS0H2IpYGcqzU-103" value="1..N" style="edgeLabel;html=1;align=center;verticalAlign=middle;resizable=0;points=[];" vertex="1" connectable="0" parent="b1p56JkDS0H2IpYGcqzU-58">
          <mxGeometry x="-0.8959" y="1" relative="1" as="geometry">
            <mxPoint x="2" y="1" as="offset" />
          </mxGeometry>
        </mxCell>
        <mxCell id="b1p56JkDS0H2IpYGcqzU-84" style="edgeStyle=orthogonalEdgeStyle;rounded=0;orthogonalLoop=1;jettySize=auto;html=1;exitX=0.75;exitY=1;exitDx=0;exitDy=0;entryX=0.5;entryY=0;entryDx=0;entryDy=0;endArrow=none;endFill=0;" edge="1" parent="1" source="b1p56JkDS0H2IpYGcqzU-51" target="b1p56JkDS0H2IpYGcqzU-83">
          <mxGeometry relative="1" as="geometry">
            <Array as="points">
              <mxPoint x="902" y="420" />
              <mxPoint x="1200" y="420" />
            </Array>
          </mxGeometry>
        </mxCell>
        <mxCell id="b1p56JkDS0H2IpYGcqzU-104" value="1..N" style="edgeLabel;html=1;align=center;verticalAlign=middle;resizable=0;points=[];" vertex="1" connectable="0" parent="b1p56JkDS0H2IpYGcqzU-84">
          <mxGeometry x="-0.9435" relative="1" as="geometry">
            <mxPoint as="offset" />
          </mxGeometry>
        </mxCell>
        <mxCell id="b1p56JkDS0H2IpYGcqzU-51" value="RoomRersevation" style="rounded=1;arcSize=10;whiteSpace=wrap;html=1;align=center;" vertex="1" parent="1">
          <mxGeometry x="827" y="320" width="100" height="40" as="geometry" />
        </mxCell>
        <mxCell id="b1p56JkDS0H2IpYGcqzU-56" value="RoomRersevationHIstory" style="rounded=1;arcSize=10;whiteSpace=wrap;html=1;align=center;" vertex="1" parent="1">
          <mxGeometry x="1320" y="320" width="140" height="40" as="geometry" />
        </mxCell>
        <mxCell id="b1p56JkDS0H2IpYGcqzU-59" style="edgeStyle=orthogonalEdgeStyle;rounded=0;orthogonalLoop=1;jettySize=auto;html=1;exitX=1;exitY=0.5;exitDx=0;exitDy=0;entryX=0;entryY=0.5;entryDx=0;entryDy=0;endArrow=none;endFill=0;" edge="1" parent="1" source="b1p56JkDS0H2IpYGcqzU-57" target="b1p56JkDS0H2IpYGcqzU-56">
          <mxGeometry relative="1" as="geometry" />
        </mxCell>
        <mxCell id="b1p56JkDS0H2IpYGcqzU-102" value="1" style="edgeLabel;html=1;align=center;verticalAlign=middle;resizable=0;points=[];" vertex="1" connectable="0" parent="b1p56JkDS0H2IpYGcqzU-59">
          <mxGeometry x="0.2124" y="2" relative="1" as="geometry">
            <mxPoint as="offset" />
          </mxGeometry>
        </mxCell>
        <mxCell id="b1p56JkDS0H2IpYGcqzU-57" value="Contains" style="shape=rhombus;perimeter=rhombusPerimeter;whiteSpace=wrap;html=1;align=center;" vertex="1" parent="1">
          <mxGeometry x="1140" y="310" width="120" height="60" as="geometry" />
        </mxCell>
        <mxCell id="b1p56JkDS0H2IpYGcqzU-60" value="" style="endArrow=classic;html=1;rounded=0;" edge="1" parent="1">
          <mxGeometry width="50" height="50" relative="1" as="geometry">
            <mxPoint x="1260" y="380" as="sourcePoint" />
            <mxPoint x="1140" y="380" as="targetPoint" />
          </mxGeometry>
        </mxCell>
        <mxCell id="b1p56JkDS0H2IpYGcqzU-69" style="edgeStyle=orthogonalEdgeStyle;rounded=0;orthogonalLoop=1;jettySize=auto;html=1;exitX=1;exitY=0.5;exitDx=0;exitDy=0;entryX=0;entryY=0.5;entryDx=0;entryDy=0;endArrow=none;endFill=0;" edge="1" parent="1" source="b1p56JkDS0H2IpYGcqzU-67" target="b1p56JkDS0H2IpYGcqzU-48">
          <mxGeometry relative="1" as="geometry" />
        </mxCell>
        <mxCell id="b1p56JkDS0H2IpYGcqzU-67" value="WorkIn" style="shape=rhombus;perimeter=rhombusPerimeter;whiteSpace=wrap;html=1;align=center;" vertex="1" parent="1">
          <mxGeometry x="520" y="130" width="120" height="60" as="geometry" />
        </mxCell>
        <mxCell id="b1p56JkDS0H2IpYGcqzU-68" value="" style="endArrow=classic;html=1;rounded=0;" edge="1" parent="1">
          <mxGeometry width="50" height="50" relative="1" as="geometry">
            <mxPoint x="640" y="200" as="sourcePoint" />
            <mxPoint x="520" y="200" as="targetPoint" />
          </mxGeometry>
        </mxCell>
        <mxCell id="b1p56JkDS0H2IpYGcqzU-76" style="edgeStyle=orthogonalEdgeStyle;rounded=0;orthogonalLoop=1;jettySize=auto;html=1;exitX=1;exitY=0.5;exitDx=0;exitDy=0;entryX=0.5;entryY=0;entryDx=0;entryDy=0;endArrow=none;endFill=0;" edge="1" parent="1" source="b1p56JkDS0H2IpYGcqzU-74" target="b1p56JkDS0H2IpYGcqzU-56">
          <mxGeometry relative="1" as="geometry">
            <Array as="points">
              <mxPoint x="1350" y="150" />
              <mxPoint x="1350" y="320" />
            </Array>
          </mxGeometry>
        </mxCell>
        <mxCell id="b1p56JkDS0H2IpYGcqzU-97" value="1..N" style="edgeLabel;html=1;align=center;verticalAlign=middle;resizable=0;points=[];" vertex="1" connectable="0" parent="b1p56JkDS0H2IpYGcqzU-76">
          <mxGeometry x="0.7022" y="-1" relative="1" as="geometry">
            <mxPoint y="16" as="offset" />
          </mxGeometry>
        </mxCell>
        <mxCell id="b1p56JkDS0H2IpYGcqzU-74" value="Check" style="shape=rhombus;perimeter=rhombusPerimeter;whiteSpace=wrap;html=1;align=center;" vertex="1" parent="1">
          <mxGeometry x="1000" y="120" width="120" height="60" as="geometry" />
        </mxCell>
        <mxCell id="b1p56JkDS0H2IpYGcqzU-77" value="" style="endArrow=classic;html=1;rounded=0;" edge="1" parent="1">
          <mxGeometry width="50" height="50" relative="1" as="geometry">
            <mxPoint x="1000" y="190" as="sourcePoint" />
            <mxPoint x="1120" y="190" as="targetPoint" />
          </mxGeometry>
        </mxCell>
        <mxCell id="b1p56JkDS0H2IpYGcqzU-81" style="edgeStyle=orthogonalEdgeStyle;rounded=0;orthogonalLoop=1;jettySize=auto;html=1;exitX=1;exitY=0.5;exitDx=0;exitDy=0;entryX=0.5;entryY=0;entryDx=0;entryDy=0;endArrow=none;endFill=0;" edge="1" parent="1" source="b1p56JkDS0H2IpYGcqzU-78" target="b1p56JkDS0H2IpYGcqzU-56">
          <mxGeometry relative="1" as="geometry">
            <Array as="points">
              <mxPoint x="1400" y="60" />
              <mxPoint x="1400" y="320" />
            </Array>
          </mxGeometry>
        </mxCell>
        <mxCell id="b1p56JkDS0H2IpYGcqzU-96" value="1" style="edgeLabel;html=1;align=center;verticalAlign=middle;resizable=0;points=[];" vertex="1" connectable="0" parent="b1p56JkDS0H2IpYGcqzU-81">
          <mxGeometry x="0.8382" y="2" relative="1" as="geometry">
            <mxPoint y="24" as="offset" />
          </mxGeometry>
        </mxCell>
        <mxCell id="b1p56JkDS0H2IpYGcqzU-78" value="Check" style="shape=rhombus;perimeter=rhombusPerimeter;whiteSpace=wrap;html=1;align=center;" vertex="1" parent="1">
          <mxGeometry x="1000" y="30" width="120" height="60" as="geometry" />
        </mxCell>
        <mxCell id="b1p56JkDS0H2IpYGcqzU-82" value="" style="endArrow=classic;html=1;rounded=0;" edge="1" parent="1">
          <mxGeometry width="50" height="50" relative="1" as="geometry">
            <mxPoint x="1000" y="100" as="sourcePoint" />
            <mxPoint x="1120" y="100" as="targetPoint" />
          </mxGeometry>
        </mxCell>
        <mxCell id="b1p56JkDS0H2IpYGcqzU-85" style="edgeStyle=orthogonalEdgeStyle;rounded=0;orthogonalLoop=1;jettySize=auto;html=1;exitX=0;exitY=0.5;exitDx=0;exitDy=0;entryX=1;entryY=0.5;entryDx=0;entryDy=0;endArrow=none;endFill=0;" edge="1" parent="1" source="b1p56JkDS0H2IpYGcqzU-83" target="b1p56JkDS0H2IpYGcqzU-38">
          <mxGeometry relative="1" as="geometry" />
        </mxCell>
        <mxCell id="b1p56JkDS0H2IpYGcqzU-105" value="1..N" style="edgeLabel;html=1;align=center;verticalAlign=middle;resizable=0;points=[];" vertex="1" connectable="0" parent="b1p56JkDS0H2IpYGcqzU-85">
          <mxGeometry x="0.9013" y="1" relative="1" as="geometry">
            <mxPoint as="offset" />
          </mxGeometry>
        </mxCell>
        <mxCell id="b1p56JkDS0H2IpYGcqzU-83" value="Contains" style="shape=rhombus;perimeter=rhombusPerimeter;whiteSpace=wrap;html=1;align=center;" vertex="1" parent="1">
          <mxGeometry x="1140" y="490" width="120" height="60" as="geometry" />
        </mxCell>
        <mxCell id="b1p56JkDS0H2IpYGcqzU-86" value="" style="endArrow=classic;html=1;rounded=0;" edge="1" parent="1">
          <mxGeometry width="50" height="50" relative="1" as="geometry">
            <mxPoint x="1260" y="560" as="sourcePoint" />
            <mxPoint x="1140" y="560" as="targetPoint" />
          </mxGeometry>
        </mxCell>
        <mxCell id="b1p56JkDS0H2IpYGcqzU-87" value="VIPLevel" style="rounded=1;arcSize=10;whiteSpace=wrap;html=1;align=center;" vertex="1" parent="1">
          <mxGeometry x="1320" y="-60" width="140" height="40" as="geometry" />
        </mxCell>
        <mxCell id="b1p56JkDS0H2IpYGcqzU-90" style="edgeStyle=orthogonalEdgeStyle;rounded=0;orthogonalLoop=1;jettySize=auto;html=1;exitX=1;exitY=0.5;exitDx=0;exitDy=0;entryX=0;entryY=0.5;entryDx=0;entryDy=0;endArrow=none;endFill=0;" edge="1" parent="1" source="b1p56JkDS0H2IpYGcqzU-88" target="b1p56JkDS0H2IpYGcqzU-87">
          <mxGeometry relative="1" as="geometry" />
        </mxCell>
        <mxCell id="b1p56JkDS0H2IpYGcqzU-95" value="1" style="edgeLabel;html=1;align=center;verticalAlign=middle;resizable=0;points=[];" vertex="1" connectable="0" parent="b1p56JkDS0H2IpYGcqzU-90">
          <mxGeometry x="0.75" y="-1" relative="1" as="geometry">
            <mxPoint as="offset" />
          </mxGeometry>
        </mxCell>
        <mxCell id="b1p56JkDS0H2IpYGcqzU-88" value="Has" style="shape=rhombus;perimeter=rhombusPerimeter;whiteSpace=wrap;html=1;align=center;" vertex="1" parent="1">
          <mxGeometry x="1000" y="-70" width="120" height="60" as="geometry" />
        </mxCell>
        <mxCell id="b1p56JkDS0H2IpYGcqzU-110" style="edgeStyle=orthogonalEdgeStyle;rounded=0;orthogonalLoop=1;jettySize=auto;html=1;exitX=1;exitY=0.5;exitDx=0;exitDy=0;entryX=0.25;entryY=1;entryDx=0;entryDy=0;endArrow=none;endFill=0;" edge="1" parent="1" source="b1p56JkDS0H2IpYGcqzU-106" target="b1p56JkDS0H2IpYGcqzU-87">
          <mxGeometry relative="1" as="geometry">
            <mxPoint x="1250" as="targetPoint" />
            <Array as="points">
              <mxPoint x="1220" y="260" />
              <mxPoint x="1220" y="20" />
              <mxPoint x="1370" y="20" />
              <mxPoint x="1370" y="-20" />
            </Array>
          </mxGeometry>
        </mxCell>
        <mxCell id="b1p56JkDS0H2IpYGcqzU-111" value="1..N" style="edgeLabel;html=1;align=center;verticalAlign=middle;resizable=0;points=[];" vertex="1" connectable="0" parent="b1p56JkDS0H2IpYGcqzU-110">
          <mxGeometry x="-0.9273" y="-2" relative="1" as="geometry">
            <mxPoint as="offset" />
          </mxGeometry>
        </mxCell>
        <mxCell id="b1p56JkDS0H2IpYGcqzU-106" value="Promote" style="shape=rhombus;perimeter=rhombusPerimeter;whiteSpace=wrap;html=1;align=center;" vertex="1" parent="1">
          <mxGeometry x="1000" y="230" width="120" height="60" as="geometry" />
        </mxCell>
        <mxCell id="b1p56JkDS0H2IpYGcqzU-107" value="" style="endArrow=classic;html=1;rounded=0;" edge="1" parent="1">
          <mxGeometry width="50" height="50" relative="1" as="geometry">
            <mxPoint x="1000" y="300" as="sourcePoint" />
            <mxPoint x="1120" y="300" as="targetPoint" />
          </mxGeometry>
        </mxCell>
      </root>
    </mxGraphModel>
  </diagram>
</mxfile>
